<?xml version="1.0" encoding="UTF-8"?>
<svg version="1.1" xmlns="http://www.w3.org/2000/svg" width="215" height="130">
<path d="M0 0 C70.95 0 141.9 0 215 0 C215 42.9 215 85.8 215 130 C144.05 130 73.1 130 0 130 C0 87.1 0 44.2 0 0 Z " fill="#FDFCFB" transform="translate(0,0)"/>
<path d="M0 0 C0.88236328 -0.04576172 1.76472656 -0.09152344 2.67382812 -0.13867188 C8.77252797 -0.24234526 12.15669534 0.94982701 16.85913086 4.84741211 C19.65581227 7.66485775 20.41961446 9.25566365 20.8125 13.25 C20.68387049 17.63144258 19.33125351 20.08683804 16.4375 23.4375 C11.12769064 28.00178231 6.78833849 27.9649464 0.125 27.75 C-0.79345703 27.74033203 -1.71191406 27.73066406 -2.65820312 27.72070312 C-9.39379699 27.60620301 -9.39379699 27.60620301 -10.5625 26.4375 C-10.66209621 24.59590977 -10.69330411 22.75053033 -10.6953125 20.90625 C-10.69660156 19.78605469 -10.69789062 18.66585937 -10.69921875 17.51171875 C-10.69535156 16.33222656 -10.69148438 15.15273437 -10.6875 13.9375 C-10.69136719 12.75800781 -10.69523437 11.57851562 -10.69921875 10.36328125 C-10.69792969 9.24308594 -10.69664063 8.12289062 -10.6953125 6.96875 C-10.69418457 5.93298828 -10.69305664 4.89722656 -10.69189453 3.83007812 C-10.39954502 -1.57562985 -4.27331488 0.08782858 0 0 Z " fill="#C81E1E" transform="translate(49.5625,75.5625)"/>
<path d="M0 0 C3.5 0.125 3.5 0.125 4.5 1.125 C4.73481693 3.30792774 4.91363323 5.49703174 5.0625 7.6875 C5.14628906 8.88503906 5.23007813 10.08257812 5.31640625 11.31640625 C5.37699219 12.24324219 5.43757812 13.17007812 5.5 14.125 C6.65435547 13.135 6.65435547 13.135 7.83203125 12.125 C10.5 10.125 10.5 10.125 13.1875 10.125 C15.5 11.125 15.5 11.125 16.8125 13.1875 C17.039375 13.826875 17.26625 14.46625 17.5 15.125 C15.85 16.775 14.2 18.425 12.5 20.125 C14.48 21.445 16.46 22.765 18.5 24.125 C18.83 19.505 19.16 14.885 19.5 10.125 C22.875 9.5 22.875 9.5 26.5 9.125 C28.5 11.125 28.5 11.125 28.73046875 15.00390625 C28.72647576 16.56516476 28.71171261 18.12642414 28.6875 19.6875 C28.68685547 20.48091797 28.68621094 21.27433594 28.68554688 22.09179688 C28.64025522 27.98474478 28.64025522 27.98474478 27.5 29.125 C25.16706666 29.16820247 22.8329866 29.16522391 20.5 29.125 C17.53551951 29.06854516 17.53551951 29.06854516 14.75 29.4375 C10.31292803 29.01085846 7.86158406 26.90974419 4.5 24.125 C4.17 25.775 3.84 27.425 3.5 29.125 C1.16705225 29.16741723 -1.16702567 29.16592937 -3.5 29.125 C-5.30279191 27.32220809 -4.63036605 24.58452299 -4.6328125 22.15625 C-4.63410156 20.94582031 -4.63539063 19.73539063 -4.63671875 18.48828125 C-4.63285156 17.21339844 -4.62898437 15.93851563 -4.625 14.625 C-4.62886719 13.35011719 -4.63273438 12.07523438 -4.63671875 10.76171875 C-4.63542969 9.55128906 -4.63414062 8.34085938 -4.6328125 7.09375 C-4.63168457 5.97419922 -4.63055664 4.85464844 -4.62939453 3.70117188 C-4.43018614 -0.2649544 -4.10975636 0.14677701 0 0 Z " fill="#384C11" transform="translate(139.5,6.875)"/>
<path d="M0 0 C4.44826142 0.96363774 4.82502009 1.62283606 7.296875 5.2421875 C8.4507123 7.1497411 9.57745805 9.07388711 10.6796875 11.01171875 C11.25976562 11.97142578 11.83984375 12.93113281 12.4375 13.91992188 C14.99487824 18.23699144 17.04356602 21.81415624 17.8046875 26.82421875 C14.8046875 28.82421875 14.8046875 28.82421875 10.8046875 28.82421875 C10.381875 28.01210938 9.9590625 27.2 9.5234375 26.36328125 C8.95625 25.52539062 8.3890625 24.6875 7.8046875 23.82421875 C5.05391573 23.29760704 3.04154665 23.12102277 0.3046875 23.19921875 C-0.71044922 23.17021484 -0.71044922 23.17021484 -1.74609375 23.140625 C-3.99095106 23.10389436 -3.99095106 23.10389436 -7.1953125 23.82421875 C-9.22960765 26.22084727 -9.22960765 26.22084727 -10.1953125 28.82421875 C-12.1753125 28.49421875 -14.1553125 28.16421875 -16.1953125 27.82421875 C-17.18462141 25.23767671 -17.34397013 24.17280705 -16.23901367 21.58178711 C-15.74377197 20.78393799 -15.24853027 19.98608887 -14.73828125 19.1640625 C-14.20267578 18.28814453 -13.66707031 17.41222656 -13.11523438 16.50976562 C-12.54353516 15.60291016 -11.97183594 14.69605469 -11.3828125 13.76171875 C-10.54266602 12.39563477 -10.54266602 12.39563477 -9.68554688 11.00195312 C-3.44812524 0.88943084 -3.44812524 0.88943084 0 0 Z " fill="#374B0E" transform="translate(63.1953125,8.17578125)"/>
<path d="M0 0 C2.546875 0.34765625 2.546875 0.34765625 4.03125 1.7890625 C4.44890625 2.48902344 4.8665625 3.18898437 5.296875 3.91015625 C5.78800781 4.71839844 6.27914062 5.52664062 6.78515625 6.359375 C7.65720703 7.83857422 7.65720703 7.83857422 8.546875 9.34765625 C9.35000938 10.62679714 10.15619975 11.90402252 10.96484375 13.1796875 C11.80581429 14.52664089 12.64565735 15.87429888 13.484375 17.22265625 C13.89848633 17.87693604 14.31259766 18.53121582 14.73925781 19.20532227 C15.75492409 20.87339205 16.66015942 22.60760732 17.546875 24.34765625 C17.051875 25.83265625 17.051875 25.83265625 16.546875 27.34765625 C13.576875 27.84265625 13.576875 27.84265625 10.546875 28.34765625 C10.03253906 27.53554687 9.51820312 26.7234375 8.98828125 25.88671875 C6.72847144 23.05186482 6.72847144 23.05186482 3.19921875 22.68359375 C1.97332031 22.69648437 0.74742188 22.709375 -0.515625 22.72265625 C-1.74410156 22.70976563 -2.97257812 22.696875 -4.23828125 22.68359375 C-7.64215545 23.00011802 -7.64215545 23.00011802 -9.1875 25.8671875 C-9.60515625 26.68574219 -10.0228125 27.50429687 -10.453125 28.34765625 C-13.640625 28.66015625 -13.640625 28.66015625 -16.453125 28.34765625 C-17.62792969 26.66845703 -17.62792969 26.66845703 -18.453125 24.34765625 C-17.42675781 21.90576172 -17.42675781 21.90576172 -15.65625 19.21484375 C-15.0271875 18.24417969 -14.398125 17.27351563 -13.75 16.2734375 C-13.07453125 15.26667969 -12.3990625 14.25992188 -11.703125 13.22265625 C-11.043125 12.20816406 -10.383125 11.19367187 -9.703125 10.1484375 C-3.36724433 0.47720501 -3.36724433 0.47720501 0 0 Z " fill="#3B4F13" transform="translate(70.453125,41.65234375)"/>
<path d="M0 0 C3.0625 0.125 3.0625 0.125 5.0625 1.125 C6.609375 0.75375 6.609375 0.75375 8.1875 0.375 C13.33267104 0.04305348 16.16130172 1.89937508 20.0625 5.125 C21.48912219 7.97824437 21.37283868 9.95954549 21.0625 13.125 C18.9119071 16.50450314 16.93005883 18.90948151 13.0625 20.125 C6.71875 20.453125 6.71875 20.453125 4.0625 19.125 C4.07410156 19.76308594 4.08570312 20.40117188 4.09765625 21.05859375 C4.10667969 21.88488281 4.11570312 22.71117188 4.125 23.5625 C4.13660156 24.38621094 4.14820312 25.20992187 4.16015625 26.05859375 C4.0625 28.125 4.0625 28.125 3.0625 29.125 C0.0625 29.25 0.0625 29.25 -2.9375 29.125 C-4.74029191 27.32220809 -4.06786605 24.58452299 -4.0703125 22.15625 C-4.07160156 20.94582031 -4.07289062 19.73539063 -4.07421875 18.48828125 C-4.07035156 17.21339844 -4.06648438 15.93851563 -4.0625 14.625 C-4.06636719 13.35011719 -4.07023437 12.07523438 -4.07421875 10.76171875 C-4.07292969 9.55128906 -4.07164063 8.34085938 -4.0703125 7.09375 C-4.06918457 5.97419922 -4.06805664 4.85464844 -4.06689453 3.70117188 C-3.88223071 0.0246197 -3.72202464 0.15838403 0 0 Z " fill="#35490B" transform="translate(112.9375,15.875)"/>
<path d="M0 0 C2.87659826 -0.1356886 5.74673463 -0.23440753 8.625 -0.3125 C9.43324219 -0.35439453 10.24148437 -0.39628906 11.07421875 -0.43945312 C15.25883296 -0.52450626 18.14883945 -0.36795272 21.5390625 2.23828125 C24.82549874 5.92639303 24.82549874 5.92639303 24.75 9.5 C24.47338121 13.18210347 23.98721336 14.01606527 21.5625 17.0625 C17.5733588 19.85585547 13.70283562 19.35627543 9 19 C8.67 21.97 8.34 24.94 8 28 C5.6739143 28.38063221 3.33944736 28.71269945 1 29 C0 28 0 28 -0.11352539 25.31616211 C-0.10828857 24.14835205 -0.10305176 22.98054199 -0.09765625 21.77734375 C-0.09443359 20.51728516 -0.09121094 19.25722656 -0.08789062 17.95898438 C-0.07953403 16.61848891 -0.07106907 15.27799412 -0.0625 13.9375 C-0.0574866 12.59310058 -0.05292342 11.2486994 -0.04882812 9.90429688 C-0.03699488 6.60282059 -0.02050971 3.30143197 0 0 Z " fill="#35490C" transform="translate(89,50)"/>
<path d="M0 0 C2.5625 0.1875 2.5625 0.1875 4.5625 2.1875 C4.73429052 5.07882177 4.7947947 7.86192065 4.75 10.75 C4.74935547 11.54341797 4.74871094 12.33683594 4.74804688 13.15429688 C4.70275522 19.04724478 4.70275522 19.04724478 3.5625 20.1875 C0.65004147 20.39574525 -2.20922669 20.51226741 -5.125 20.5625 C-5.92873047 20.59988281 -6.73246094 20.63726562 -7.56054688 20.67578125 C-11.8209799 20.73848591 -14.58143053 20.53432248 -17.95703125 17.7890625 C-20.5911986 15.02629801 -21.28839153 14.12475326 -21.875 10.4375 C-21.3511977 6.54639717 -20.40651488 4.94339332 -17.56640625 2.30859375 C-13.8448595 0.34880675 -10.0543849 0.8166991 -5.94921875 1.07421875 C-5.12035156 1.11160156 -4.29148438 1.14898437 -3.4375 1.1875 C-2.4375 0.1875 -2.4375 0.1875 0 0 Z " fill="#C81F1F" transform="translate(143.4375,82.8125)"/>
<path d="M0 0 C1.45316776 0.20692356 2.91181137 0.38341126 4.375 0.5 C4.705 0.17 5.035 -0.16 5.375 -0.5 C8.375 -0.625 8.375 -0.625 11.375 -0.5 C12.8970959 1.0220959 12.50459521 2.38210082 12.5078125 4.5 C12.50974609 5.7065625 12.50974609 5.7065625 12.51171875 6.9375 C12.50785156 7.783125 12.50398438 8.62875 12.5 9.5 C12.50580078 10.7684375 12.50580078 10.7684375 12.51171875 12.0625 C12.51042969 12.866875 12.50914063 13.67125 12.5078125 14.5 C12.50668457 15.2425 12.50555664 15.985 12.50439453 16.75 C12.375 18.5 12.375 18.5 11.375 19.5 C8.44370011 19.68098107 5.55849593 19.77823019 2.625 19.8125 C1.81289062 19.84150391 1.00078125 19.87050781 0.1640625 19.90039062 C-3.95537006 19.94400025 -6.07216471 19.84731233 -9.640625 17.60546875 C-12.68750954 14.37265228 -13.02099459 11.99690534 -12.98046875 7.5390625 C-12.37859564 4.08655959 -10.30676469 2.55809848 -7.625 0.5 C-4.51385325 -0.53704892 -3.16472902 -0.4535768 0 0 Z " fill="#334709" transform="translate(94.625,16.5)"/>
<path d="M0 0 C3 0.125 3 0.125 4 1.125 C4.07271741 3.47813555 4.08370868 5.83333668 4.0625 8.1875 C4.05347656 9.47785156 4.04445313 10.76820312 4.03515625 12.09765625 C4.02355469 13.09667969 4.01195313 14.09570312 4 15.125 C4.44730469 14.75246094 4.89460938 14.37992188 5.35546875 13.99609375 C10.35506003 10.08383362 10.35506003 10.08383362 13.9375 10.3125 C14.618125 10.580625 15.29875 10.84875 16 11.125 C16.33 12.775 16.66 14.425 17 16.125 C15.35 17.445 13.7 18.765 12 20.125 C14.31 21.445 16.62 22.765 19 24.125 C18.42655063 26.99224686 18.1385485 27.9864515 16 30.125 C12.76798416 29.75155279 10.44350897 28.31328083 7.75 26.5625 C7.04359375 26.10746094 6.3371875 25.65242188 5.609375 25.18359375 C5.07828125 24.83425781 4.5471875 24.48492187 4 24.125 C4 25.775 4 27.425 4 29.125 C1.36 29.125 -1.28 29.125 -4 29.125 C-4.02465881 25.15569011 -4.04284023 21.18640966 -4.05493164 17.21704102 C-4.05997057 15.86579614 -4.06680177 14.51455674 -4.07543945 13.16333008 C-4.08752419 11.22479566 -4.09269828 9.286222 -4.09765625 7.34765625 C-4.10289307 6.17984619 -4.10812988 5.01203613 -4.11352539 3.80883789 C-3.95307676 0.01569434 -3.8345602 0.15977334 0 0 Z " fill="#C81D1D" transform="translate(103,73.875)"/>
<path d="M0 0 C1.134375 0.020625 2.26875 0.04125 3.4375 0.0625 C3.4375 0.7225 3.4375 1.3825 3.4375 2.0625 C4.4275 1.4025 5.4175 0.7425 6.4375 0.0625 C11.24131932 -0.48875795 13.53419513 -0.35689155 17.9375 1.6875 C20.31275981 3.88896031 20.45294904 5.19359185 20.83984375 8.4765625 C20.87253863 12.04393724 20.80444046 15.51386066 20.4375 19.0625 C19.4375 20.0625 19.4375 20.0625 16.4375 20.1875 C13.4375 20.0625 13.4375 20.0625 12.4375 19.0625 C12.20386119 17.21358054 12.02446365 15.35761969 11.875 13.5 C11.74931641 11.98212891 11.74931641 11.98212891 11.62109375 10.43359375 C11.56050781 9.65113281 11.49992187 8.86867188 11.4375 8.0625 C8.7975 8.0625 6.1575 8.0625 3.4375 8.0625 C3.44910156 8.84496094 3.46070312 9.62742187 3.47265625 10.43359375 C3.48167969 11.44550781 3.49070312 12.45742188 3.5 13.5 C3.51160156 14.50933594 3.52320312 15.51867187 3.53515625 16.55859375 C3.4375 19.0625 3.4375 19.0625 2.4375 20.0625 C-0.5625 20.1875 -0.5625 20.1875 -3.5625 20.0625 C-5.0845959 18.5404041 -4.69209521 17.18039918 -4.6953125 15.0625 C-4.69660156 14.258125 -4.69789062 13.45375 -4.69921875 12.625 C-4.69535156 11.779375 -4.69148438 10.93375 -4.6875 10.0625 C-4.69136719 9.216875 -4.69523437 8.37125 -4.69921875 7.5 C-4.69792969 6.695625 -4.69664063 5.89125 -4.6953125 5.0625 C-4.69418457 4.32 -4.69305664 3.5775 -4.69189453 2.8125 C-4.44481924 -0.52907677 -3.44621318 0.06045988 0 0 Z " fill="#34490D" transform="translate(119.5625,49.9375)"/>
<path d="M0 0 C2.5625 0.1875 2.5625 0.1875 4.5625 2.1875 C4.94140625 4.53515625 4.94140625 4.53515625 5.125 7.25 C5.10231953 10.52589564 5.10231953 10.52589564 6.5625 13.1875 C9.0625 13.35416667 9.0625 13.35416667 11.5625 13.1875 C13.29003345 11.45996655 12.89254719 9.04256034 13.0625 6.6875 C13.45138889 1.29861111 13.45138889 1.29861111 14.5625 0.1875 C17.5625 0.0625 17.5625 0.0625 20.5625 0.1875 C21.5625 1.1875 21.5625 1.1875 21.67602539 3.04516602 C21.67078857 3.83592529 21.66555176 4.62668457 21.66015625 5.44140625 C21.65693359 6.29541016 21.65371094 7.14941406 21.65039062 8.02929688 C21.64201172 8.92712891 21.63363281 9.82496094 21.625 10.75 C21.62048828 11.65169922 21.61597656 12.55339844 21.61132812 13.48242188 C21.59950225 15.71751314 21.5830222 17.95247437 21.5625 20.1875 C18.3340237 20.36249733 15.10677074 20.46856618 11.875 20.5625 C10.50698242 20.63791016 10.50698242 20.63791016 9.11132812 20.71484375 C2.60395971 20.8568227 2.60395971 20.8568227 -0.18457031 19.06469727 C-2.601483 16.47042407 -3.42644368 14.25920105 -3.9609375 10.79296875 C-3.91195312 9.66503906 -3.86296875 8.53710938 -3.8125 7.375 C-3.77898437 6.23417969 -3.74546875 5.09335938 -3.7109375 3.91796875 C-3.34434263 0.25725713 -3.34434263 0.25725713 0 0 Z " fill="#C81E1E" transform="translate(75.4375,82.8125)"/>
<path d="M0 0 C4.516875 -0.1546875 4.516875 -0.1546875 9.125 -0.3125 C10.06230957 -0.35802002 10.99961914 -0.40354004 11.96533203 -0.45043945 C16.06948585 -0.5181864 19.18702312 -0.38145624 22.59375 2.0625 C25.61958822 5.75638043 25.63908122 7.60305151 25.375 12.3125 C25.32085937 13.56675781 25.26671875 14.82101563 25.2109375 16.11328125 C25.14132813 17.06589844 25.07171875 18.01851562 25 19 C22.66705225 19.04241723 20.33297433 19.04092937 18 19 C15.96600896 16.96600896 16.50047917 13.0060239 16.28125 10.25 C16.23799335 8.03334648 16.23799335 8.03334648 15 7 C12.5 6.83333333 12.5 6.83333333 10 7 C8.26043342 8.73956658 8.62809614 11.1936622 8.4375 13.5625 C8.35371094 14.57441406 8.26992187 15.58632812 8.18359375 16.62890625 C8.12300781 17.41136719 8.06242188 18.19382812 8 19 C5.36 19 2.72 19 0 19 C0 12.73 0 6.46 0 0 Z " fill="#C71A1A" transform="translate(150,84)"/>
<path d="M0 0 C7.76785714 -0.66964286 7.76785714 -0.66964286 11.5 2.1875 C14 5 14 5 14.6875 7.5625 C13.72229522 10.98458966 11.9028297 12.0647802 9 14 C7 15 7 15 0 15 C0 10.05 0 5.1 0 0 Z " fill="#FCF2F2" transform="translate(48,82)"/>
<path d="M0 0 C3.5 0.125 3.5 0.125 4.5 1.125 C4.5983721 2.45543625 4.63078592 3.79093344 4.6328125 5.125 C4.63474609 6.3315625 4.63474609 6.3315625 4.63671875 7.5625 C4.63285156 8.408125 4.62898437 9.25375 4.625 10.125 C4.62886719 10.970625 4.63273438 11.81625 4.63671875 12.6875 C4.63542969 13.491875 4.63414062 14.29625 4.6328125 15.125 C4.63168457 15.8675 4.63055664 16.61 4.62939453 17.375 C4.5 19.125 4.5 19.125 3.5 20.125 C0 20.25 0 20.25 -3.5 20.125 C-5.0220959 18.6029041 -4.62959521 17.24289918 -4.6328125 15.125 C-4.63410156 14.320625 -4.63539063 13.51625 -4.63671875 12.6875 C-4.63285156 11.841875 -4.62898437 10.99625 -4.625 10.125 C-4.62886719 9.279375 -4.63273438 8.43375 -4.63671875 7.5625 C-4.63542969 6.758125 -4.63414062 5.95375 -4.6328125 5.125 C-4.63168457 4.3825 -4.63055664 3.64 -4.62939453 2.875 C-4.38500063 -0.4303123 -3.40608223 0.12164579 0 0 Z " fill="#3E5118" transform="translate(146.5,49.875)"/>
<path d="M0 0 C2 2 2 2 2.23046875 5.87890625 C2.22647576 7.44016476 2.21171261 9.00142414 2.1875 10.5625 C2.18685547 11.35591797 2.18621094 12.14933594 2.18554688 12.96679688 C2.14025522 18.85974478 2.14025522 18.85974478 1 20 C-1.33297433 20.04092937 -3.66705225 20.04241723 -6 20 C-8.51533004 16.23667929 -8.10321902 12.62916497 -7.75 8.3125 C-7.71003906 7.62349609 -7.67007813 6.93449219 -7.62890625 6.22460938 C-7.50160855 4.47512615 -7.2594889 2.73480885 -7 1 C-4.48718205 -0.25640898 -2.78302919 -0.20872719 0 0 Z " fill="#3F531A" transform="translate(166,16)"/>
<path d="M0 0 C0.99 0.66 1.98 1.32 3 2 C2.125 6.875 2.125 6.875 1 8 C-4.73611111 8.27314815 -4.73611111 8.27314815 -7 8 C-7.66 7.34 -8.32 6.68 -9 6 C-8.75 3.4375 -8.75 3.4375 -8 1 C-5.22899606 -0.38550197 -3.0665294 -0.1877467 0 0 Z " fill="#9CAF54" transform="translate(111,108)"/>
<path d="M0 0 C3.375 0.6875 3.375 0.6875 4.375 1.6875 C4.5 4.1875 4.5 4.1875 4.375 6.6875 C3.375 7.6875 3.375 7.6875 1.34375 7.8203125 C0.5290625 7.81773438 -0.285625 7.81515625 -1.125 7.8125 C-1.9396875 7.81507812 -2.754375 7.81765625 -3.59375 7.8203125 C-5.625 7.6875 -5.625 7.6875 -6.625 6.6875 C-6.875 4.25 -6.875 4.25 -6.625 1.6875 C-3.625 -0.3125 -3.625 -0.3125 0 0 Z " fill="#9EB056" transform="translate(64.625,108.3125)"/>
<path d="M0 0 C1.4540625 0.0309375 1.4540625 0.0309375 2.9375 0.0625 C2.9375 0.7225 2.9375 1.3825 2.9375 2.0625 C1.2875 2.0625 -0.3625 2.0625 -2.0625 2.0625 C-2.0625 10.6425 -2.0625 19.2225 -2.0625 28.0625 C-0.4125 28.0625 1.2375 28.0625 2.9375 28.0625 C2.9375 28.3925 2.9375 28.7225 2.9375 29.0625 C0.93795254 29.10504356 -1.06291636 29.10330783 -3.0625 29.0625 C-4.86529191 27.25970809 -4.19286605 24.52202299 -4.1953125 22.09375 C-4.19660156 20.88332031 -4.19789062 19.67289063 -4.19921875 18.42578125 C-4.19535156 17.15089844 -4.19148438 15.87601563 -4.1875 14.5625 C-4.19136719 13.28761719 -4.19523437 12.01273438 -4.19921875 10.69921875 C-4.19792969 9.48878906 -4.19664063 8.27835938 -4.1953125 7.03125 C-4.19418457 5.91169922 -4.19305664 4.79214844 -4.19189453 3.63867188 C-4.0036618 -0.10893529 -3.81518819 0.07786098 0 0 Z " fill="#3B5524" transform="translate(113.0625,15.9375)"/>
<path d="M0 0 C4 1 4 1 6 3 C6.33 2.01 6.66 1.02 7 0 C7.99 0 8.98 0 10 0 C10 2.64 10 5.28 10 8 C5.125 7.125 5.125 7.125 4 6 C3.67 6.99 3.34 7.98 3 9 C2.01 9 1.02 9 0 9 C0 6.03 0 3.06 0 0 Z " fill="#A8B869" transform="translate(121,108)"/>
<path d="M0 0 C6.0546875 -0.1953125 6.0546875 -0.1953125 8 0 C10 2 10 2 10 5 C7.69 5.33 5.38 5.66 3 6 C3 6.99 3 7.98 3 9 C2.01 9 1.02 9 0 9 C0 6.03 0 3.06 0 0 Z " fill="#BBC78A" transform="translate(76,108)"/>
<path d="M0 0 C1.32 0 2.64 0 4 0 C4 0.99 4 1.98 4 3 C5.32 3 6.64 3 8 3 C8 2.01 8 1.02 8 0 C8.99 0 9.98 0 11 0 C11 2.97 11 5.94 11 9 C10.01 9 9.02 9 8 9 C8 7.68 8 6.36 8 5 C6.35 5 4.7 5 3 5 C3 5.99 3 6.98 3 8 C2.01 8 1.02 8 0 8 C0 5.36 0 2.72 0 0 Z " fill="#AABA6F" transform="translate(40,108)"/>
<path d="M0 0 C3.83736322 0.95934081 4.59660228 1.23609263 7 4 C7.33 2.68 7.66 1.36 8 0 C8.66 0 9.32 0 10 0 C10 2.64 10 5.28 10 8 C7.13275314 7.42655063 6.1385485 7.1385485 4 5 C3.67 6.32 3.34 7.64 3 9 C2.01 9 1.02 9 0 9 C0 6.03 0 3.06 0 0 Z " fill="#A3B461" transform="translate(163,108)"/>
<path d="M0 0 C0.33 0 0.66 0 1 0 C1 4.62 1 9.24 1 14 C-2.465 12.02 -2.465 12.02 -6 10 C-6 7 -6 7 -3.5625 4.4375 C-2.716875 3.633125 -1.87125 2.82875 -1 2 C-0.67 1.34 -0.34 0.68 0 0 Z " fill="#EFF0EB" transform="translate(158,18)"/>
<path d="M0 0 C1.134375 0.020625 2.26875 0.04125 3.4375 0.0625 C4.0625 2.4375 4.0625 2.4375 4.4375 5.0625 C3.7775 5.7225 3.1175 6.3825 2.4375 7.0625 C-1.1875 6.6875 -1.1875 6.6875 -4.5625 6.0625 C-4.605221 4.39638095 -4.60313832 2.72867115 -4.5625 1.0625 C-3.5625 0.0625 -3.5625 0.0625 0 0 Z " fill="#475B27" transform="translate(163.5625,6.9375)"/>
<path d="M0 0 C2.5 0.25 2.5 0.25 4.5 2.25 C4.125 4.875 4.125 4.875 3.5 7.25 C1.19 7.25 -1.12 7.25 -3.5 7.25 C-4.125 4.875 -4.125 4.875 -4.5 2.25 C-2.5 0.25 -2.5 0.25 0 0 Z " fill="#536638" transform="translate(146.5,39.75)"/>
<path d="M0 0 C0.33 0.66 0.66 1.32 1 2 C1.66 2.33 2.32 2.66 3 3 C2.979375 3.928125 2.95875 4.85625 2.9375 5.8125 C2.84230396 9.02286011 2.84230396 9.02286011 4 12 C3.34 12.66 2.68 13.32 2 14 C2 13.01 2 12.02 2 11 C1.236875 10.731875 0.47375 10.46375 -0.3125 10.1875 C-2.87380884 9.05575888 -4.19692938 8.08776599 -6 6 C-2.25 3 -2.25 3 0 3 C0 2.01 0 1.02 0 0 Z " fill="#F9E6E6" transform="translate(120,87)"/>
<path d="M0 0 C1.32 0 2.64 0 4 0 C4 1.98 4 3.96 4 6 C5.65 6 7.3 6 9 6 C9 6.99 9 7.98 9 9 C2.84765625 9.09765625 2.84765625 9.09765625 1 9 C0 8 0 8 -0.09765625 6.15234375 C-0.06510417 4.1015625 -0.03255208 2.05078125 0 0 Z " fill="#B9C787" transform="translate(138,108)"/>
<path d="M0 0 C2.64 0 5.28 0 8 0 C7.67 1.65 7.34 3.3 7 5 C5.68 5 4.36 5 3 5 C3 5.66 3 6.32 3 7 C4.65 7 6.3 7 8 7 C8 7.33 8 7.66 8 8 C5.36 8 2.72 8 0 8 C0 5.36 0 2.72 0 0 Z " fill="#A0B25C" transform="translate(181,108)"/>
<path d="M0 0 C2.375 -0.125 2.375 -0.125 5 0 C5.66 0.66 6.32 1.32 7 2 C6.625 4.125 6.625 4.125 6 6 C3.625 6.625 3.625 6.625 1 7 C0.34 6.34 -0.32 5.68 -1 5 C-0.625 2.375 -0.625 2.375 0 0 Z " fill="#F9E7E7" transform="translate(132,90)"/>
<path d="M0 0 C0.625 1.875 0.625 1.875 1 4 C0.34 4.66 -0.32 5.32 -1 6 C-3.625 5.625 -3.625 5.625 -6 5 C-6.33 3.35 -6.66 1.7 -7 0 C-4.3333581 -1.33332095 -2.83319697 -0.67102033 0 0 Z " fill="#ECEEE8" transform="translate(97,24)"/>
<path d="M0 0 C1.4540625 0.0309375 1.4540625 0.0309375 2.9375 0.0625 C3.2675 0.7225 3.5975 1.3825 3.9375 2.0625 C2.6175 2.3925 1.2975 2.7225 -0.0625 3.0625 C2.4125 4.0525 2.4125 4.0525 4.9375 5.0625 C4.6075 6.0525 4.2775 7.0425 3.9375 8.0625 C1.6275 8.0625 -0.6825 8.0625 -3.0625 8.0625 C-3.0625 7.7325 -3.0625 7.4025 -3.0625 7.0625 C-1.4125 7.0625 0.2375 7.0625 1.9375 7.0625 C1.9375 6.4025 1.9375 5.7425 1.9375 5.0625 C0.2875 5.0625 -1.3625 5.0625 -3.0625 5.0625 C-3.625 3.125 -3.625 3.125 -4.0625 1.0625 C-3.0625 0.0625 -3.0625 0.0625 0 0 Z " fill="#A6B766" transform="translate(29.0625,107.9375)"/>
<path d="M0 0 C1.98 0 3.96 0 6 0 C6.33 1.65 6.66 3.3 7 5 C4.125 5.625 4.125 5.625 1 6 C0.34 5.34 -0.32 4.68 -1 4 C-0.625 1.875 -0.625 1.875 0 0 Z " fill="#F0F1ED" transform="translate(98,57)"/>
<path d="M0 0 C2.5625 0.1875 2.5625 0.1875 4.5625 2.1875 C4.5625 3.1775 4.5625 4.1675 4.5625 5.1875 C2.2525 5.5175 -0.0575 5.8475 -2.4375 6.1875 C-2.81968767 4.53135343 -3.15145102 2.86292976 -3.4375 1.1875 C-2.4375 0.1875 -2.4375 0.1875 0 0 Z " fill="#F0F1ED" transform="translate(121.4375,22.8125)"/>
<path d="M0 0 C1.99954746 -0.04254356 4.00041636 -0.04080783 6 0 C7 1 7 1 7.11352539 2.76586914 C7.10828857 3.51473389 7.10305176 4.26359863 7.09765625 5.03515625 C7.09282227 6.24848633 7.09282227 6.24848633 7.08789062 7.48632812 C7.07951172 8.33646484 7.07113281 9.18660156 7.0625 10.0625 C7.05798828 10.91650391 7.05347656 11.77050781 7.04882812 12.65039062 C7.03700373 14.76695663 7.01906769 16.88348685 7 19 C6.67 19 6.34 19 6 19 C5.67 13.72 5.34 8.44 5 3 C3.35 2.67 1.7 2.34 0 2 C0 1.34 0 0.68 0 0 Z " fill="#4B5E25" transform="translate(100,16)"/>
<path d="M0 0 C0.99 0 1.98 0 3 0 C3 2.97 3 5.94 3 9 C2.01 9 1.02 9 0 9 C0 6.03 0 3.06 0 0 Z " fill="#A7B869" transform="translate(153,108)"/>
<path d="M0 0 C1.65 0 3.3 0 5 0 C5.33 1.32 5.66 2.64 6 4 C4.35 4.33 2.7 4.66 1 5 C0.67 3.35 0.34 1.7 0 0 Z " fill="#EFF2E3" transform="translate(61,110)"/>
<path d="M0 0 C1.65 0.33 3.3 0.66 5 1 C4.67 2.32 4.34 3.64 4 5 C2.35 4.67 0.7 4.34 -1 4 C-0.67 2.68 -0.34 1.36 0 0 Z " fill="#F3F5EA" transform="translate(106,110)"/>
<path d="M0 0 C1.32 0.33 2.64 0.66 4 1 C4 1.99 4 2.98 4 4 C3.34 4 2.68 4 2 4 C2 5.32 2 6.64 2 8 C1.34 8 0.68 8 0 8 C0 5.36 0 2.72 0 0 Z " fill="#98AC4F" transform="translate(121,108)"/>
<path d="M0 0 C2.97 0.495 2.97 0.495 6 1 C6 2.32 6 3.64 6 5 C4.35 5 2.7 5 1 5 C0.67 3.35 0.34 1.7 0 0 Z " fill="#304302" transform="translate(143,41)"/>
<path d="M0 0 C0.99 0 1.98 0 3 0 C2.125 4.875 2.125 4.875 1 6 C-0.99958364 6.04080783 -3.00045254 6.04254356 -5 6 C-4.360625 5.7525 -3.72125 5.505 -3.0625 5.25 C-0.81258459 4.18437567 -0.81258459 4.18437567 -0.25 1.875 C-0.1675 1.25625 -0.085 0.6375 0 0 Z " fill="#9CAE53" transform="translate(111,110)"/>
<path d="M0 0 C0.66 0 1.32 0 2 0 C2 2.64 2 5.28 2 8 C0.68 7.67 -0.64 7.34 -2 7 C-2 6.34 -2 5.68 -2 5 C-1.34 5 -0.68 5 0 5 C0 3.35 0 1.7 0 0 Z " fill="#93A844" transform="translate(171,108)"/>
<path d="M0 0 C1.35432675 1.31200404 2.68733482 2.64631404 4 4 C4 4.33 4 4.66 4 5 C2.02 5 0.04 5 -2 5 C-1.34 3.35 -0.68 1.7 0 0 Z " fill="#D4D9CB" transform="translate(63,20)"/>
<path d="M0 0 C1.65 0 3.3 0 5 0 C5 1.32 5 2.64 5 4 C2.69 4 0.38 4 -2 4 C-2 3.67 -2 3.34 -2 3 C-0.35 3 1.3 3 3 3 C3 2.34 3 1.68 3 1 C2.01 0.67 1.02 0.34 0 0 Z " fill="#98AC4D" transform="translate(28,112)"/>
<path d="M0 0 C0.66 0 1.32 0 2 0 C2 1.32 2 2.64 2 4 C2.99 4.33 3.98 4.66 5 5 C4.01 5 3.02 5 2 5 C2 5.66 2 6.32 2 7 C1.34 7 0.68 7 0 7 C0 4.69 0 2.38 0 0 Z " fill="#90A542" transform="translate(77,109)"/>
<path d="M0 0 C0 0.99 0 1.98 0 3 C-2.875 3.125 -2.875 3.125 -6 3 C-6.66 2.34 -7.32 1.68 -8 1 C-5.29120665 -0.35439668 -2.99066732 -0.06501451 0 0 Z " fill="#A9B96A" transform="translate(111,108)"/>
</svg>
